<mxfile host="www.draw.io" modified="2019-12-15T13:03:43.467Z" agent="Mozilla/5.0 (X11; Ubuntu; Linux x86_64; rv:71.0) Gecko/20100101 Firefox/71.0" etag="clwGnaKUI5EyLDM32fLS" version="12.4.2" type="github" pages="1">
  <diagram name="Page-1" id="e7e014a7-5840-1c2e-5031-d8a46d1fe8dd">
    <mxGraphModel dx="1355" dy="753" grid="1" gridSize="10" guides="1" tooltips="1" connect="1" arrows="1" fold="1" page="1" pageScale="1" pageWidth="1169" pageHeight="826" background="#ffffff" math="0" shadow="0">
      <root>
        <mxCell id="0"/>
        <mxCell id="1" parent="0"/>
        <mxCell id="2" value="Bahnhofsfoto App" style="swimlane;whiteSpace=wrap" parent="1" vertex="1">
          <mxGeometry x="80" y="128" width="490" height="672" as="geometry"/>
        </mxCell>
        <mxCell id="5" value="" style="ellipse;shape=startState;fillColor=#000000;strokeColor=#ff0000;" parent="2" vertex="1">
          <mxGeometry x="98" y="40" width="30" height="30" as="geometry"/>
        </mxCell>
        <mxCell id="6" value="" style="edgeStyle=elbowEdgeStyle;elbow=horizontal;verticalAlign=bottom;endArrow=open;endSize=8;strokeColor=#000000;endFill=1;rounded=0;entryX=0.5;entryY=0;entryDx=0;entryDy=0;" parent="2" source="5" target="7" edge="1">
          <mxGeometry x="100" y="40" as="geometry">
            <mxPoint x="115" y="110" as="targetPoint"/>
          </mxGeometry>
        </mxCell>
        <mxCell id="7" value="Take Photo" style="" parent="2" vertex="1">
          <mxGeometry x="58" y="110" width="110" height="50" as="geometry"/>
        </mxCell>
        <mxCell id="9" value="" style="endArrow=open;strokeColor=#000000;endFill=1;rounded=0;entryX=0.5;entryY=0;entryDx=0;entryDy=0;" parent="2" source="7" target="BnFJbuk0f4SCmOn7btbz-41" edge="1">
          <mxGeometry relative="1" as="geometry">
            <mxPoint x="115" y="220" as="targetPoint"/>
          </mxGeometry>
        </mxCell>
        <mxCell id="BnFJbuk0f4SCmOn7btbz-46" style="edgeStyle=orthogonalEdgeStyle;rounded=0;orthogonalLoop=1;jettySize=auto;html=1;entryX=0;entryY=0.5;entryDx=0;entryDy=0;strokeColor=#000000;" edge="1" parent="2" source="10" target="BnFJbuk0f4SCmOn7btbz-45">
          <mxGeometry relative="1" as="geometry"/>
        </mxCell>
        <mxCell id="10" value="Save photo to&#xa;/sdcard/Bahnhofsfotos/&#xa;&lt;country&gt;/&lt;stationId&gt;.jpg" style="" parent="2" vertex="1">
          <mxGeometry x="20" y="320" width="180" height="60" as="geometry"/>
        </mxCell>
        <mxCell id="11" value="Yes" style="endArrow=open;strokeColor=#000000;endFill=1;rounded=0;exitX=0.5;exitY=1;exitDx=0;exitDy=0;" parent="2" source="BnFJbuk0f4SCmOn7btbz-41" target="10" edge="1">
          <mxGeometry relative="1" as="geometry">
            <mxPoint x="115" y="270" as="sourcePoint"/>
          </mxGeometry>
        </mxCell>
        <mxCell id="BnFJbuk0f4SCmOn7btbz-43" style="edgeStyle=orthogonalEdgeStyle;rounded=0;orthogonalLoop=1;jettySize=auto;html=1;" edge="1" parent="2" source="BnFJbuk0f4SCmOn7btbz-41" target="BnFJbuk0f4SCmOn7btbz-42">
          <mxGeometry relative="1" as="geometry"/>
        </mxCell>
        <mxCell id="BnFJbuk0f4SCmOn7btbz-44" value="No" style="text;html=1;align=center;verticalAlign=middle;resizable=0;points=[];;labelBackgroundColor=#ffffff;" vertex="1" connectable="0" parent="BnFJbuk0f4SCmOn7btbz-43">
          <mxGeometry x="-0.0917" y="-3" relative="1" as="geometry">
            <mxPoint as="offset"/>
          </mxGeometry>
        </mxCell>
        <mxCell id="BnFJbuk0f4SCmOn7btbz-41" value="Existing Station?" style="rhombus;whiteSpace=wrap;html=1;" vertex="1" parent="2">
          <mxGeometry x="72.5" y="202" width="80" height="80" as="geometry"/>
        </mxCell>
        <mxCell id="BnFJbuk0f4SCmOn7btbz-47" style="edgeStyle=orthogonalEdgeStyle;rounded=0;orthogonalLoop=1;jettySize=auto;html=1;entryX=1;entryY=0.5;entryDx=0;entryDy=0;strokeColor=#000000;" edge="1" parent="2" source="BnFJbuk0f4SCmOn7btbz-42" target="BnFJbuk0f4SCmOn7btbz-45">
          <mxGeometry relative="1" as="geometry"/>
        </mxCell>
        <mxCell id="BnFJbuk0f4SCmOn7btbz-42" value="Save photo to /sdcard/Bahnhofsfotos/missing/&amp;lt;latitutde&amp;gt;_&amp;lt;longitude&amp;gt;.jpg" style="rounded=0;whiteSpace=wrap;html=1;" vertex="1" parent="2">
          <mxGeometry x="210" y="320" width="190" height="60" as="geometry"/>
        </mxCell>
        <mxCell id="BnFJbuk0f4SCmOn7btbz-49" style="edgeStyle=orthogonalEdgeStyle;rounded=0;orthogonalLoop=1;jettySize=auto;html=1;entryX=0.5;entryY=0;entryDx=0;entryDy=0;strokeColor=#000000;" edge="1" parent="2" source="BnFJbuk0f4SCmOn7btbz-45" target="BnFJbuk0f4SCmOn7btbz-48">
          <mxGeometry relative="1" as="geometry"/>
        </mxCell>
        <mxCell id="BnFJbuk0f4SCmOn7btbz-45" value="" style="rhombus;whiteSpace=wrap;html=1;" vertex="1" parent="2">
          <mxGeometry x="168" y="412" width="80" height="80" as="geometry"/>
        </mxCell>
        <mxCell id="BnFJbuk0f4SCmOn7btbz-48" value="Upload photo" style="rounded=0;whiteSpace=wrap;html=1;" vertex="1" parent="2">
          <mxGeometry x="148" y="532" width="120" height="60" as="geometry"/>
        </mxCell>
        <mxCell id="3" value="RSAPI" style="swimlane;whiteSpace=wrap" parent="1" vertex="1">
          <mxGeometry x="570" y="128" width="510" height="672" as="geometry"/>
        </mxCell>
        <mxCell id="13" value="" style="ellipse;shape=startState;fillColor=#000000;strokeColor=#ff0000;" parent="3" vertex="1">
          <mxGeometry x="60" y="40" width="30" height="30" as="geometry"/>
        </mxCell>
        <mxCell id="14" value="" style="edgeStyle=elbowEdgeStyle;elbow=horizontal;verticalAlign=bottom;endArrow=open;endSize=8;strokeColor=#000000;endFill=1;rounded=0" parent="3" source="13" edge="1">
          <mxGeometry x="40" y="20" as="geometry">
            <mxPoint x="75" y="110" as="targetPoint"/>
          </mxGeometry>
        </mxCell>
        <mxCell id="BnFJbuk0f4SCmOn7btbz-51" value="POST /photoUpload" style="rounded=0;whiteSpace=wrap;html=1;" vertex="1" parent="3">
          <mxGeometry x="70" y="532" width="120" height="60" as="geometry"/>
        </mxCell>
        <mxCell id="BnFJbuk0f4SCmOn7btbz-50" style="edgeStyle=orthogonalEdgeStyle;rounded=0;orthogonalLoop=1;jettySize=auto;html=1;strokeColor=#000000;" edge="1" parent="1" source="BnFJbuk0f4SCmOn7btbz-48">
          <mxGeometry relative="1" as="geometry">
            <mxPoint x="640" y="690" as="targetPoint"/>
          </mxGeometry>
        </mxCell>
      </root>
    </mxGraphModel>
  </diagram>
</mxfile>
